<?xml version="1.0" encoding="UTF-8" ?>
<svg xmlns="http://www.w3.org/2000/svg" version="1.1">
<polyline points= 
      "0,120
      10,119
      20,120
      30,118
      40,113
      50,112
      60,113
      70,116
      80,119
      90,121
      100,123
      110,126
      120,127
      130,127
      140,129
      150,130
      160,140
      170,141
      180,132
      190,132
      200,133
      210,133
      220,130
      230,129
      240,128
      250,126
      260,125
      270,123
      280,120
      290,118
      300,122
      310,134
      320,136
      330,137
      340,136
      350,133
      360,133
      370,130
      380,129
      390,128
      400,126
      410,125
      420,123
      430,120
      440,118
      450,122
      460,134
      470,136
      480,137
      490,136
      500,139
      510,141
      520,142
      530,142
      540,138"
style="fill:white;stroke:red;stroke-width:4" />
</svg>
